<?xml version="1.0" encoding="utf-8"?>
<svg viewBox="0 0 989 179" xmlns="http://www.w3.org/2000/svg">
  <g stroke-width="2.00" fill="none" stroke-linecap="butt">
    <path stroke="#796c10" vector-effect="non-scaling-stroke" d=" M 93.94 104.97 C 100.88 95.70 83.35 78.52 75.97 74.48 C 73.14 72.93 70.67 73.59 67.90 74.68 Q 65.97 75.44 67.76 76.48 Q 71.85 78.85 75.83 81.54 C 83.75 86.90 89.24 95.90 92.20 104.69 Q 92.80 106.50 93.94 104.97"/>
    <path stroke="#796c10" vector-effect="non-scaling-stroke" d=" M 34.75 86.04 Q 34.14 87.71 35.59 87.96 C 62.97 92.70 72.90 109.15 77.25 134.75 Q 77.57 136.65 79.63 135.91"/>
    <path stroke="#796c10" vector-effect="non-scaling-stroke" d=" M 82.04 133.25 Q 82.51 130.73 82.07 128.18 Q 75.73 91.23 39.31 82.88 Q 38.94 82.79 37.75 83.21"/>
    <path stroke="#796c10" vector-effect="non-scaling-stroke" d=" M 59.06 125.96 C 52.88 113.24 40.74 103.93 27.06 99.69 Q 21.75 98.05 21.76 103.74 A 1.00 0.99 -83.0 0 0 22.51 104.71 Q 46.10 110.67 55.24 132.17 C 56.93 136.14 57.83 141.26 59.07 145.77 A 1.02 1.01 2.4 0 0 59.69 146.44 C 70.31 150.38 60.03 127.94 59.06 125.96"/>
  </g>
  <path d=" M 228.07 68.67 Q 228.06 71.15 229.79 69.37 Q 238.20 60.68 249.85 58.45 C 287.24 51.28 312.37 90.12 296.66 122.19 C 286.62 142.69 262.40 152.68 241.02 142.56 Q 234.68 139.56 229.73 134.26 Q 228.00 132.40 228.00 134.94 Q 228.00 137.36 228.01 140.25 C 228.03 143.19 225.07 144.24 222.40 144.23 C 216.97 144.21 212.77 145.12 212.77 137.84 Q 212.72 85.55 212.78 33.25 C 212.79 26.73 216.99 26.68 222.77 26.93 C 227.51 27.13 228.27 30.32 228.24 34.57 Q 228.12 51.98 228.07 68.67 Z M 251.23 72.29 C 215.20 79.40 222.86 138.01 262.26 131.35 C 298.90 125.16 290.56 64.52 251.23 72.29 Z" style="fill: rgb(255, 255, 255);"/>
  <path d=" M 456.98 134.56 Q 444.33 147.03 426.00 146.30 C 386.15 144.70 372.23 93.03 400.43 67.83 C 412.60 56.96 431.76 54.05 446.77 61.73 Q 452.72 64.78 457.36 69.88 Q 458.75 71.41 458.75 69.34 Q 458.74 50.07 458.77 30.81 C 458.78 26.66 465.32 26.81 469.01 27.03 C 472.95 27.28 473.99 29.78 473.99 33.49 Q 474.02 86.84 473.99 140.18 C 473.99 144.98 467.38 144.19 464.25 144.21 C 459.61 144.25 458.76 142.17 458.85 137.85 Q 458.88 136.47 458.67 135.11 Q 458.36 133.19 456.98 134.56 Z M 427.06 71.99 C 389.97 73.53 392.55 136.93 434.19 131.57 C 455.70 128.80 464.26 104.85 455.15 86.84 Q 447.21 71.16 427.06 71.99 Z" style="fill: rgb(255, 255, 255);"/>
  <path d=" M 665.45 58.30 Q 665.55 52.40 665.59 46.51 C 665.64 40.48 672.87 41.27 676.74 41.83 C 682.74 42.69 680.76 54.04 680.74 58.48 A 1.00 1.00 0.0 0 0 681.74 59.48 Q 689.05 59.52 696.50 59.49 C 701.35 59.47 700.73 67.17 700.41 69.94 C 700.04 73.16 697.66 73.96 694.62 73.98 Q 688.20 74.02 681.76 73.99 A 1.00 1.00 0.0 0 0 680.76 74.99 Q 680.74 95.17 680.75 115.50 C 680.76 127.90 685.28 131.40 697.25 131.30 Q 700.27 131.27 700.43 134.29 C 700.61 137.71 701.70 144.35 696.78 144.97 C 678.50 147.24 665.89 137.86 665.69 118.93 Q 665.46 96.99 665.51 75.01 A 1.00 0.99 0.3 0 0 664.51 74.01 C 659.17 74.03 651.07 76.17 650.98 68.12 C 650.92 62.71 650.61 59.32 657.17 59.53 Q 660.87 59.65 664.55 59.28 A 1.00 1.00 0.0 0 0 665.45 58.30 Z" style="fill: rgb(255, 255, 255);"/>
  <path d=" M 490.19 71.69 C 505.65 54.29 533.12 51.94 548.78 69.75 Q 550.87 72.12 550.53 68.98 C 550.03 64.43 549.56 59.71 555.71 59.51 C 560.57 59.35 565.72 58.73 565.71 64.65 Q 565.67 100.07 565.43 135.50 C 565.31 153.14 558.50 168.55 541.45 174.97 C 524.31 181.41 501.63 178.08 487.70 165.81 C 482.70 161.41 488.15 158.19 492.17 155.92 C 494.93 154.36 496.34 153.72 499.06 156.03 C 508.16 163.77 521.08 165.15 532.27 162.20 C 544.34 159.02 549.76 148.44 550.19 136.99 Q 550.33 133.23 550.52 129.45 Q 550.64 126.99 549.10 128.91 Q 543.00 136.46 534.38 139.63 C 511.80 147.93 487.02 133.16 480.75 110.42 C 476.90 96.47 480.55 82.53 490.19 71.69 Z M 550.62 99.59 A 27.89 27.89 0.0 0 0 522.73 71.70 A 27.89 27.89 0.0 0 0 494.84 99.59 A 27.89 27.89 0.0 0 0 522.73 127.48 A 27.89 27.89 0.0 0 0 550.62 99.59 Z" style="fill: rgb(255, 255, 255);"/>
  <path d=" M 571.52 93.01 C 575.42 71.23 594.49 56.01 616.41 57.72 C 640.20 59.57 654.31 78.29 654.74 101.24 C 654.83 106.31 652.40 108.24 647.39 108.24 Q 617.44 108.25 587.97 108.26 A 1.01 1.00 83.3 0 0 587.00 109.49 C 592.51 133.76 620.78 138.11 638.02 123.38 A 1.02 1.01 -53.5 0 1 639.05 123.22 Q 643.90 125.23 647.90 128.91 Q 650.62 131.41 647.46 134.45 Q 639.59 142.01 628.97 144.63 C 595.05 153.03 565.19 128.32 571.52 93.01 Z M 638.67 94.07 C 633.26 63.22 591.75 65.11 587.02 94.09 A 1.00 0.99 -85.3 0 0 588.00 95.25 L 637.68 95.24 A 1.00 1.00 0.0 0 0 638.67 94.07 Z" style="fill: rgb(255, 255, 255);"/>
  <path d=" M 364.16 133.78 C 348.27 155.46 315.27 147.45 307.93 122.63 Q 306.55 117.94 306.52 109.07 Q 306.46 86.04 306.52 62.98 Q 306.53 60.07 309.41 59.71 C 318.73 58.56 321.62 58.61 321.68 68.46 Q 321.82 89.22 321.73 110.00 Q 321.70 117.45 326.05 124.19 C 332.98 134.93 351.44 133.58 359.20 124.72 C 364.31 118.89 365.20 111.78 365.22 103.31 Q 365.28 83.53 365.24 63.75 C 365.23 58.79 371.10 59.39 375.26 59.37 C 379.82 59.35 380.47 62.42 380.48 66.40 Q 380.58 123.25 380.47 139.44 C 380.42 145.55 373.33 144.28 369.50 144.23 C 362.81 144.16 366.44 133.61 364.71 133.52 A 0.64 0.62 19.1 0 0 364.16 133.78 Z" style="fill: rgb(255, 255, 255);"/>
  <path d=" M 75.97 74.48 C 83.35 78.52 100.88 95.70 93.94 104.97 Q 92.80 106.50 92.20 104.69 C 89.24 95.90 83.75 86.90 75.83 81.54 Q 71.85 78.85 67.76 76.48 Q 65.97 75.44 67.90 74.68 C 70.67 73.59 73.14 72.93 75.97 74.48 Z" style=""/>
  <path d=" M 82.04 133.25 Q 81.36 134.75 79.63 135.91 Q 77.57 136.65 77.25 134.75 C 72.90 109.15 62.97 92.70 35.59 87.96 Q 34.14 87.71 34.75 86.04 Q 35.57 83.86 37.75 83.21 Q 38.94 82.79 39.31 82.88 Q 75.73 91.23 82.07 128.18 Q 82.51 130.73 82.04 133.25 Z" style=""/>
  <path d=" M 27.06 99.69 C 40.74 103.93 52.88 113.24 59.06 125.96 C 60.03 127.94 70.31 150.38 59.69 146.44 A 1.02 1.01 2.4 0 1 59.07 145.77 C 57.83 141.26 56.93 136.14 55.24 132.17 Q 46.10 110.67 22.51 104.71 A 1.00 0.99 -83.0 0 1 21.76 103.74 Q 21.75 98.05 27.06 99.69 Z" style=""/>
</svg>