<?xml version="1.0" encoding="utf-8"?>
<svg viewBox="0 0 989 179" xmlns="http://www.w3.org/2000/svg">
  <g stroke-width="2.00" fill="none" stroke-linecap="butt">
    <path stroke="#796c10" vector-effect="non-scaling-stroke" d=" M 93.94 104.97 C 100.88 95.70 83.35 78.52 75.97 74.48 C 73.14 72.93 70.67 73.59 67.90 74.68 Q 65.97 75.44 67.76 76.48 Q 71.85 78.85 75.83 81.54 C 83.75 86.90 89.24 95.90 92.20 104.69 Q 92.80 106.50 93.94 104.97"/>
    <path stroke="#796c10" vector-effect="non-scaling-stroke" d=" M 34.75 86.04 Q 34.14 87.71 35.59 87.96 C 62.97 92.70 72.90 109.15 77.25 134.75 Q 77.57 136.65 79.63 135.91"/>
    <path stroke="#796c10" vector-effect="non-scaling-stroke" d=" M 82.04 133.25 Q 82.51 130.73 82.07 128.18 Q 75.73 91.23 39.31 82.88 Q 38.94 82.79 37.75 83.21"/>
    <path stroke="#796c10" vector-effect="non-scaling-stroke" d=" M 59.06 125.96 C 52.88 113.24 40.74 103.93 27.06 99.69 Q 21.75 98.05 21.76 103.74 A 1.00 0.99 -83.0 0 0 22.51 104.71 Q 46.10 110.67 55.24 132.17 C 56.93 136.14 57.83 141.26 59.07 145.77 A 1.02 1.01 2.4 0 0 59.69 146.44 C 70.31 150.38 60.03 127.94 59.06 125.96"/>
  </g>
  <path d="M 81.34 140.29 C 81.05 140.15 79.37 140.76 78.95 141.07 C 69.383 148.257 58.463 152.437 46.19 153.61 C 12.22 156.85 6.34 127.2 18.27 102.3 C 21.5 95.55 26.61 88.98 31.61 83.07 C 32.383 82.15 32.177 81.603 30.99 81.43 C 21.997 80.123 14.943 76.457 9.83 70.43 C -13.11 43.38 17 6.81 48.83 20.43 C 63.09 26.53 76.68 39.31 88.78 49.72 C 89.467 50.307 90.347 50.297 91.42 49.69 C 91.639 49.561 91.803 49.362 91.88 49.13 C 97.7 31.58 114.9 25.2 131.78 32.73 C 132.168 32.904 132.624 32.816 132.92 32.51 C 136.973 28.27 138.833 23.19 138.5 17.27 C 138.475 16.875 138.221 16.53 137.85 16.39 C 131.823 14.11 130.38 10.167 133.52 4.56 C 133.611 4.39 133.75 4.251 133.92 4.16 C 140.2 0.787 144.397 2.43 146.51 9.09 C 146.593 9.339 146.572 9.61 146.45 9.84 C 144.67 13.393 143.827 16.11 143.92 17.99 C 144.24 24.497 142.403 30.26 138.41 35.28 C 138.286 35.436 138.213 35.625 138.2 35.82 C 137.85 39.68 140.55 40.44 143.55 38.92 C 146.777 37.28 150.18 36.21 153.76 35.71 C 157.5 35.18 161.71 36.42 166.2 35.4 C 174.68 33.46 176.41 42.54 174.09 48.25 C 173.987 48.499 173.789 48.697 173.54 48.8 C 169.847 50.313 166.617 49.95 163.85 47.71 C 162.18 46.36 161.49 44.01 160.05 42.18 C 159.914 41.999 159.719 41.871 159.5 41.82 C 153.833 40.48 148.883 41.777 144.65 45.71 C 144.373 45.975 144.265 46.368 144.37 46.73 C 149.38 63.86 140.78 80.06 123.09 84.48 C 121.457 84.887 121.077 85.807 121.95 87.24 C 128.21 97.487 134.363 107.793 140.41 118.16 C 143.51 123.473 145.457 127.763 146.25 131.03 C 151.31 151.88 137.21 173.12 115.03 173.21 C 95.49 173.29 85.78 159.68 82.72 142.09 C 82.589 141.296 82.071 140.621 81.34 140.29 Z M 140.14 9.69 C 140.14 9.011 139.589 8.46 138.91 8.46 C 138.231 8.46 137.68 9.011 137.68 9.69 C 137.68 10.369 138.231 10.92 138.91 10.92 C 139.589 10.92 140.14 10.369 140.14 9.69 Z M 87.21 55.25 C 76.717 46.683 65.987 38.427 55.02 30.48 C 40.05 19.62 13.54 20.55 8.89 42.86 C 6 56.72 13.16 69.86 26.53 74.29 C 33.79 76.7 41.1 76 48.49 74.2 C 62.197 70.867 75.813 66.993 89.34 62.58 C 91.22 61.973 91.64 60.83 90.6 59.15 C 89.647 57.617 88.517 56.317 87.21 55.25 Z M 169.27 42.25 C 169.27 41.504 168.666 40.9 167.92 40.9 C 167.174 40.9 166.57 41.504 166.57 42.25 C 166.57 42.996 167.174 43.6 167.92 43.6 C 168.666 43.6 169.27 42.996 169.27 42.25 Z M 93.94 104.97 C 100.88 95.7 83.35 78.52 75.97 74.48 C 73.14 72.93 70.67 73.59 67.9 74.68 C 66.613 75.187 66.567 75.787 67.76 76.48 C 70.487 78.06 73.177 79.747 75.83 81.54 C 75.83 81.54 89.24 95.9 92.2 104.69 C 92.6 105.897 93.18 105.99 93.94 104.97 Z M 88.76 137.73 C 87.28 153.38 100.02 167.8 116.01 167.66 C 132.15 167.51 142.77 152.09 140.95 137.05 C 140.117 130.203 137.89 123.847 134.27 117.98 C 127.11 106.373 120.05 94.81 113.09 83.29 C 111.883 81.29 110.78 81.347 109.78 83.46 C 104.92 93.7 100.177 103.98 95.55 114.3 C 91.69 122.907 89.427 130.717 88.76 137.73 Z M 34.75 86.04 C 34.343 87.153 34.623 87.793 35.59 87.96 C 44.987 89.587 52.328 92.593 58.094 96.875 C 69.129 105.069 74.393 117.936 77.25 134.75 C 77.463 136.017 78.257 136.403 79.63 135.91 C 82.043 136.503 82.847 135.617 82.04 133.25 C 82.353 131.57 82.363 129.88 82.07 128.18 C 79.677 114.232 74.068 103.34 65.246 95.505 C 58.487 89.503 49.842 85.295 39.31 82.88 C 39.063 82.82 38.543 82.93 37.75 83.21 C 37.03 81.39 33.49 83.55 34.75 86.04 Z M 59.06 125.96 C 52.88 113.24 40.74 103.93 27.06 99.69 C 23.52 98.597 21.753 99.947 21.76 103.74 C 21.759 104.199 22.069 104.6 22.51 104.71 C 38.237 108.683 49.147 117.837 55.24 132.17 C 56.93 136.14 57.83 141.26 59.07 145.77 C 59.158 146.078 59.388 146.326 59.69 146.44 C 70.31 150.38 60.03 127.94 59.06 125.96 Z" style="fill: rgb(206, 255, 125);"/>
  <path d=" M 228.07 68.67 Q 228.06 71.15 229.79 69.37 Q 238.20 60.68 249.85 58.45 C 287.24 51.28 312.37 90.12 296.66 122.19 C 286.62 142.69 262.40 152.68 241.02 142.56 Q 234.68 139.56 229.73 134.26 Q 228.00 132.40 228.00 134.94 Q 228.00 137.36 228.01 140.25 C 228.03 143.19 225.07 144.24 222.40 144.23 C 216.97 144.21 212.77 145.12 212.77 137.84 Q 212.72 85.55 212.78 33.25 C 212.79 26.73 216.99 26.68 222.77 26.93 C 227.51 27.13 228.27 30.32 228.24 34.57 Q 228.12 51.98 228.07 68.67 Z M 251.23 72.29 C 215.20 79.40 222.86 138.01 262.26 131.35 C 298.90 125.16 290.56 64.52 251.23 72.29 Z" style="fill: rgb(255, 255, 255);"/>
  <path d=" M 456.98 134.56 Q 444.33 147.03 426.00 146.30 C 386.15 144.70 372.23 93.03 400.43 67.83 C 412.60 56.96 431.76 54.05 446.77 61.73 Q 452.72 64.78 457.36 69.88 Q 458.75 71.41 458.75 69.34 Q 458.74 50.07 458.77 30.81 C 458.78 26.66 465.32 26.81 469.01 27.03 C 472.95 27.28 473.99 29.78 473.99 33.49 Q 474.02 86.84 473.99 140.18 C 473.99 144.98 467.38 144.19 464.25 144.21 C 459.61 144.25 458.76 142.17 458.85 137.85 Q 458.88 136.47 458.67 135.11 Q 458.36 133.19 456.98 134.56 Z M 427.06 71.99 C 389.97 73.53 392.55 136.93 434.19 131.57 C 455.70 128.80 464.26 104.85 455.15 86.84 Q 447.21 71.16 427.06 71.99 Z" style="fill: rgb(255, 255, 255);"/>
  <path d=" M 898.33 105.52 Q 897.48 106.44 896.46 107.18 Q 894.97 108.26 892.65 108.26 Q 862.48 108.24 832.33 108.25 A 1.00 1.00 0.0 0 0 831.36 109.47 Q 835.20 126.67 852.48 131.02 C 860.48 133.04 869.01 130.38 875.81 125.19 C 880.85 121.33 887.81 124.53 891.80 128.60 Q 893.84 130.69 892.50 133.29 Q 891.61 135.01 889.31 136.82 C 879.40 144.58 867.78 146.83 855.12 146.32 C 831.39 145.35 813.56 131.14 810.89 106.81 A 0.26 0.26 0.0 0 0 810.48 106.63 C 810.39 106.69 810.19 107.01 810.17 107.13 C 807.59 127.94 792.62 144.45 771.58 146.17 C 763.32 146.84 753.55 146.27 746.00 142.68 Q 742.06 140.81 738.55 138.17 Q 737.14 137.12 737.27 138.87 Q 737.48 141.73 735.60 143.21 C 733.52 144.84 729.19 144.26 726.39 144.25 C 720.13 144.22 717.54 144.41 717.58 137.46 Q 717.88 86.64 717.73 35.82 C 717.71 29.68 717.45 27.12 724.21 27.01 C 730.02 26.92 737.24 25.00 737.24 33.51 Q 737.26 49.28 737.25 65.07 Q 737.25 66.74 738.55 65.70 Q 745.61 60.03 754.67 58.37 C 783.30 53.14 807.25 68.39 810.38 98.20 Q 810.39 98.37 810.47 98.48 Q 810.80 98.98 810.85 98.38 C 815.57 44.75 893.55 42.89 898.80 96.15 C 898.96 97.69 899.68 96.76 899.79 95.95 C 903.05 70.65 923.52 55.69 948.42 57.52 C 968.74 59.01 983.29 72.16 987.30 92.49 C 988.21 97.10 990.04 108.25 982.15 108.25 Q 951.28 108.23 921.03 108.28 A 1.00 1.00 0.0 0 0 920.07 109.55 C 926.10 131.12 949.15 139.02 965.97 123.97 A 1.02 1.02 0.0 0 1 966.65 123.71 C 969.80 123.75 972.76 123.19 975.58 124.85 Q 978.60 126.64 980.47 128.27 C 987.50 134.42 967.36 143.35 963.98 144.27 Q 951.95 147.55 937.80 145.54 Q 908.96 141.43 900.77 113.69 Q 899.88 110.65 899.72 106.04 Q 899.65 104.11 898.33 105.52 Z M 763.8600 131.7400 A 29.93 26.70 90.0 0 0 790.5600 101.8100 A 29.93 26.70 90.0 0 0 763.8600 71.8800 A 29.93 26.70 90.0 0 0 737.1600 101.8100 A 29.93 26.70 90.0 0 0 763.8600 131.7400 Z M 837.69 80.69 Q 832.68 86.48 831.37 94.08 A 1.00 1.00 0.0 0 0 832.36 95.25 L 877.44 95.25 A 1.00 1.00 0.0 0 0 878.43 94.10 C 875.18 73.31 852.62 63.41 837.69 80.69 Z M 967.43 94.10 C 962.86 64.03 925.06 65.77 920.12 94.08 A 1.00 0.99 5.1 0 0 921.10 95.25 L 966.44 95.25 A 1.00 1.00 0.0 0 0 967.43 94.10 Z" style="fill: rgb(206, 255, 125);"/>
  <path d=" M 55.93 37.10 A 1.00 0.94 15.4 0 1 56.24 37.61 C 57.31 42.31 54.57 42.86 51.60 40.94 C 39.73 33.26 34.11 32.87 21.59 39.70 A 0.96 0.93 -51.3 0 1 20.86 39.79 Q 17.84 38.98 18.53 36.49 C 19.24 33.93 23.69 31.76 25.92 30.92 Q 42.35 24.75 55.93 37.10 Z" style="fill: rgb(206, 255, 125);"/>
  <path d=" M 665.45 58.30 Q 665.55 52.40 665.59 46.51 C 665.64 40.48 672.87 41.27 676.74 41.83 C 682.74 42.69 680.76 54.04 680.74 58.48 A 1.00 1.00 0.0 0 0 681.74 59.48 Q 689.05 59.52 696.50 59.49 C 701.35 59.47 700.73 67.17 700.41 69.94 C 700.04 73.16 697.66 73.96 694.62 73.98 Q 688.20 74.02 681.76 73.99 A 1.00 1.00 0.0 0 0 680.76 74.99 Q 680.74 95.17 680.75 115.50 C 680.76 127.90 685.28 131.40 697.25 131.30 Q 700.27 131.27 700.43 134.29 C 700.61 137.71 701.70 144.35 696.78 144.97 C 678.50 147.24 665.89 137.86 665.69 118.93 Q 665.46 96.99 665.51 75.01 A 1.00 0.99 0.3 0 0 664.51 74.01 C 659.17 74.03 651.07 76.17 650.98 68.12 C 650.92 62.71 650.61 59.32 657.17 59.53 Q 660.87 59.65 664.55 59.28 A 1.00 1.00 0.0 0 0 665.45 58.30 Z" style="fill: rgb(255, 255, 255);"/>
  <ellipse cx="0.00" cy="0.00" transform="matrix(0.83962, -0.543174, 0.543174, 0.83962, 62.939999, 46.93)" rx="3.10" ry="2.86" style="fill: rgb(206, 255, 125);"/>
  <path d=" M 490.19 71.69 C 505.65 54.29 533.12 51.94 548.78 69.75 Q 550.87 72.12 550.53 68.98 C 550.03 64.43 549.56 59.71 555.71 59.51 C 560.57 59.35 565.72 58.73 565.71 64.65 Q 565.67 100.07 565.43 135.50 C 565.31 153.14 558.50 168.55 541.45 174.97 C 524.31 181.41 501.63 178.08 487.70 165.81 C 482.70 161.41 488.15 158.19 492.17 155.92 C 494.93 154.36 496.34 153.72 499.06 156.03 C 508.16 163.77 521.08 165.15 532.27 162.20 C 544.34 159.02 549.76 148.44 550.19 136.99 Q 550.33 133.23 550.52 129.45 Q 550.64 126.99 549.10 128.91 Q 543.00 136.46 534.38 139.63 C 511.80 147.93 487.02 133.16 480.75 110.42 C 476.90 96.47 480.55 82.53 490.19 71.69 Z M 550.62 99.59 A 27.89 27.89 0.0 0 0 522.73 71.70 A 27.89 27.89 0.0 0 0 494.84 99.59 A 27.89 27.89 0.0 0 0 522.73 127.48 A 27.89 27.89 0.0 0 0 550.62 99.59 Z" style="fill: rgb(255, 255, 255);"/>
  <path d=" M 571.52 93.01 C 575.42 71.23 594.49 56.01 616.41 57.72 C 640.20 59.57 654.31 78.29 654.74 101.24 C 654.83 106.31 652.40 108.24 647.39 108.24 Q 617.44 108.25 587.97 108.26 A 1.01 1.00 83.3 0 0 587.00 109.49 C 592.51 133.76 620.78 138.11 638.02 123.38 A 1.02 1.01 -53.5 0 1 639.05 123.22 Q 643.90 125.23 647.90 128.91 Q 650.62 131.41 647.46 134.45 Q 639.59 142.01 628.97 144.63 C 595.05 153.03 565.19 128.32 571.52 93.01 Z M 638.67 94.07 C 633.26 63.22 591.75 65.11 587.02 94.09 A 1.00 0.99 -85.3 0 0 588.00 95.25 L 637.68 95.24 A 1.00 1.00 0.0 0 0 638.67 94.07 Z" style="fill: rgb(255, 255, 255);"/>
  <path d=" M 364.16 133.78 C 348.27 155.46 315.27 147.45 307.93 122.63 Q 306.55 117.94 306.52 109.07 Q 306.46 86.04 306.52 62.98 Q 306.53 60.07 309.41 59.71 C 318.73 58.56 321.62 58.61 321.68 68.46 Q 321.82 89.22 321.73 110.00 Q 321.70 117.45 326.05 124.19 C 332.98 134.93 351.44 133.58 359.20 124.72 C 364.31 118.89 365.20 111.78 365.22 103.31 Q 365.28 83.53 365.24 63.75 C 365.23 58.79 371.10 59.39 375.26 59.37 C 379.82 59.35 380.47 62.42 380.48 66.40 Q 380.58 123.25 380.47 139.44 C 380.42 145.55 373.33 144.28 369.50 144.23 C 362.81 144.16 366.44 133.61 364.71 133.52 A 0.64 0.62 19.1 0 0 364.16 133.78 Z" style="fill: rgb(255, 255, 255);"/>
  <path d=" M 75.97 74.48 C 83.35 78.52 100.88 95.70 93.94 104.97 Q 92.80 106.50 92.20 104.69 C 89.24 95.90 83.75 86.90 75.83 81.54 Q 71.85 78.85 67.76 76.48 Q 65.97 75.44 67.90 74.68 C 70.67 73.59 73.14 72.93 75.97 74.48 Z" style=""/>
  <path d=" M 82.04 133.25 Q 81.36 134.75 79.63 135.91 Q 77.57 136.65 77.25 134.75 C 72.90 109.15 62.97 92.70 35.59 87.96 Q 34.14 87.71 34.75 86.04 Q 35.57 83.86 37.75 83.21 Q 38.94 82.79 39.31 82.88 Q 75.73 91.23 82.07 128.18 Q 82.51 130.73 82.04 133.25 Z" style=""/>
  <path d=" M 27.06 99.69 C 40.74 103.93 52.88 113.24 59.06 125.96 C 60.03 127.94 70.31 150.38 59.69 146.44 A 1.02 1.01 2.4 0 1 59.07 145.77 C 57.83 141.26 56.93 136.14 55.24 132.17 Q 46.10 110.67 22.51 104.71 A 1.00 0.99 -83.0 0 1 21.76 103.74 Q 21.75 98.05 27.06 99.69 Z" style=""/>
  <rect x="-2.90" y="-3.07" transform="matrix(0.710799, -0.703395, 0.703395, 0.710799, 121.230003, 112.980003)" width="5.80" height="6.14" rx="1.83" style="fill: rgb(206, 255, 125);"/>
  <path d=" M 130.09 121.14 Q 130.27 121.25 130.39 121.43 C 138.11 132.77 138.25 147.56 128.02 157.53 Q 126.09 159.41 122.80 157.61 A 1.00 1.00 0.0 0 1 122.45 156.17 Q 124.50 153.15 126.56 149.75 C 131.57 141.51 128.96 133.31 126.01 125.01 C 124.90 121.90 124.78 117.86 130.09 121.14 Z" style="fill: rgb(206, 255, 125);"/>
</svg>